<svg width="35" height="35" viewBox="0 0 35 35" fill="none" xmlns="http://www.w3.org/2000/svg">
<path fill-rule="evenodd" clip-rule="evenodd" d="M17.5 1.64706C8.75 1.64706 1.64062 8.78431 1.64062 17.5686C1.64062 26.2157 8.75 33.3529 17.5 33.3529C26.25 33.3529 33.3594 26.2157 33.3594 17.5686C33.3594 8.78431 26.25 1.64706 17.5 1.64706ZM17.5 35C7.92969 35 0 27.1765 0 17.5686C0 7.82353 7.92969 0 17.5 0C27.207 0 35 7.82353 35 17.5686C35 27.1765 27.207 35 17.5 35Z" fill="#706456"/>
<path d="M9.69148 16.1466C9.69148 12.9164 12.3614 10.25 15.6383 10.25C18.9152 10.25 21.5851 12.9164 21.5851 16.1466C21.5851 19.4811 18.9986 21.8333 15.6383 21.8333C12.278 21.8333 9.69148 19.4811 9.69148 16.1466Z" stroke="#706456" stroke-width="3"/>
<path d="M20.8608 20.0538L21.0916 19.7629C21.3441 19.4445 21.7772 19.3602 22.059 19.5745L27.0988 23.4074C27.3806 23.6217 27.4043 24.0535 27.1518 24.3718L26.921 24.6628C26.6685 24.9811 26.2353 25.0654 25.9536 24.8511L20.9138 21.0182C20.632 20.8039 20.6083 20.3721 20.8608 20.0538Z" fill="#706456" stroke="#706456" stroke-width="0.199968"/>
</svg>
