<svg width="35" height="35" viewBox="0 0 35 35" fill="none" xmlns="http://www.w3.org/2000/svg">
<path fill-rule="evenodd" clip-rule="evenodd" d="M17.5 1.64706C8.75 1.64706 1.77734 8.78431 1.77734 17.5686C1.77734 26.2157 8.75 33.3529 17.5 33.3529C26.25 33.3529 33.3594 26.2157 33.3594 17.5686C33.3594 8.78431 26.25 1.64706 17.5 1.64706ZM17.5 35C7.92969 35 0 27.1765 0 17.5686C0 7.82353 7.92969 0 17.5 0C27.207 0 35 7.82353 35 17.5686C35 27.1765 27.207 35 17.5 35Z" fill="#706456"/>
<path d="M6.7359 15.625L17.6353 8.75L27.587 15.625H26.1653V24.7917H9.10534V15.625H6.7359Z" fill="#706456"/>
</svg>
