<svg width="25" height="25" viewBox="0 0 25 25" fill="none" xmlns="http://www.w3.org/2000/svg">
<path fill-rule="evenodd" clip-rule="evenodd" d="M12.4999 2.08331C6.74992 2.08331 2.08325 6.74998 2.08325 12.5C2.08325 18.25 6.74992 22.9166 12.4999 22.9166C18.2499 22.9166 22.9166 18.25 22.9166 12.5C22.9166 6.74998 18.2499 2.08331 12.4999 2.08331ZM12.4999 20.8333C7.90617 20.8333 4.16659 17.0937 4.16659 12.5C4.16659 7.90623 7.90617 4.16665 12.4999 4.16665C17.0937 4.16665 20.8333 7.90623 20.8333 12.5C20.8333 17.0937 17.0937 20.8333 12.4999 20.8333ZM10.4166 14.7604L17.2812 7.89581L18.7499 9.37498L10.4166 17.7083L6.24992 13.5416L7.71867 12.0729L10.4166 14.7604Z" fill="#B7DB61"/>
</svg>
