<svg width="35" height="35" viewBox="0 0 35 35" fill="none" xmlns="http://www.w3.org/2000/svg">
<path fill-rule="evenodd" clip-rule="evenodd" d="M17.5 1.64706C8.75 1.64706 1.64062 8.78431 1.64062 17.5686C1.64062 26.2157 8.75 33.3529 17.5 33.3529C26.25 33.3529 33.3594 26.2157 33.3594 17.5686C33.3594 8.78431 26.25 1.64706 17.5 1.64706ZM17.5 35C7.92969 35 0 27.1765 0 17.5686C0 7.82353 7.92969 0 17.5 0C27.207 0 35 7.82353 35 17.5686C35 27.1765 27.207 35 17.5 35Z" fill="#706456"/>
<g clip-path="url(#clip0)">
<path d="M25.237 11.1215H9.74403C8.34577 11.1215 7.21225 12.1553 7.21225 13.4306V24.2005C7.21225 25.4758 8.34577 26.5096 9.74403 26.5096H25.237C26.6353 26.5096 27.7688 25.4758 27.7688 24.2005V13.4306C27.7688 12.1553 26.6353 11.1215 25.237 11.1215Z" stroke="#706456" stroke-width="3.52713"/>
<path d="M13.6959 7.33051H13.3717C13.0169 7.33051 12.7293 7.59281 12.7293 7.91639V13.7034C12.7293 14.027 13.0169 14.2893 13.3717 14.2893H13.6959C14.0507 14.2893 14.3383 14.027 14.3383 13.7034V7.91639C14.3383 7.59281 14.0507 7.33051 13.6959 7.33051Z" fill="#706456" stroke="#706456" stroke-width="0.199968"/>
<path d="M22.1793 7.33051H21.855C21.5003 7.33051 21.2126 7.59281 21.2126 7.91639V13.7034C21.2126 14.027 21.5003 14.2893 21.855 14.2893H22.1793C22.5341 14.2893 22.8217 14.027 22.8217 13.7034V7.91639C22.8217 7.59281 22.5341 7.33051 22.1793 7.33051Z" fill="#706456" stroke="#706456" stroke-width="0.199968"/>
<path d="M18.0982 7.33051H17.7739C17.4191 7.33051 17.1315 7.59281 17.1315 7.91639V13.7034C17.1315 14.027 17.4191 14.2893 17.7739 14.2893H18.0982C18.453 14.2893 18.7406 14.027 18.7406 13.7034V7.91639C18.7406 7.59281 18.453 7.33051 18.0982 7.33051Z" fill="#706456" stroke="#706456" stroke-width="0.199968"/>
<path d="M17.3105 25.2938L16.3949 24.5063C13.1429 21.7202 10.996 19.8827 10.996 17.6276C10.996 15.7901 12.5241 14.3464 14.469 14.3464C15.5677 14.3464 16.6223 14.8296 17.3105 15.5932C17.9988 14.8296 19.0534 14.3464 20.1521 14.3464C22.097 14.3464 23.6251 15.7901 23.6251 17.6276C23.6251 19.8827 21.4781 21.7202 18.2262 24.5123L17.3105 25.2938Z" fill="#706456"/>
</g>
<defs>
<clipPath id="clip0">
<rect width="21.5957" height="19.6875" fill="white" transform="translate(6.70212 7.29169)"/>
</clipPath>
</defs>
</svg>
